Coordinates
version=1
nRows=34
nColumns=38
inDegrees=no

Units are S.I. units (second, meters, Newtons, ...)
If the header above contains a line with 'inDegrees', this indicates whether rotational values are in degrees (yes) or radians (no).

endheader
time	pelvis_tilt	pelvis_list	pelvis_rotation	pelvis_tx	pelvis_ty	pelvis_tz	hip_flexion_r	hip_adduction_r	hip_rotation_r	knee_angle_r	ankle_angle_r	subtalar_angle_r	mtp_angle_r	hip_flexion_l	hip_adduction_l	hip_rotation_l	knee_angle_l	ankle_angle_l	subtalar_angle_l	mtp_angle_l	lumbar_extension	lumbar_bending	lumbar_rotation	arm_flex_r	arm_add_r	arm_rot_r	elbow_flex_r	pro_sup_r	wrist_flex_r	wrist_dev_r	arm_flex_l	arm_add_l	arm_rot_l	elbow_flex_l	pro_sup_l	wrist_flex_l	wrist_dev_l
15	-2.4881	1.45614	0.758076	0.643371	-0.311725	0.971146	0.210525	0.0549709	-0.117604	0.346921	0.112877	0	0	0.0564254	-0.0698178	-0.209821	0.0920811	0.0756457	0	0	-0.114162	0.116388	0.144102	-0.340076	-0.390902	0.183167	1.30177	1.56012	0	0	-0.299169	-0.368249	0.368139	1.25041	1.25636	0	0
15.01	-2.46578	1.45749	0.737071	0.643208	-0.31226	0.971215	0.206311	0.0556153	-0.119613	0.346054	0.113925	0	0	0.0523703	-0.0705885	-0.209352	0.0908873	0.0761365	0	0	-0.114801	0.117006	0.143959	-0.343768	-0.388911	0.176704	1.30502	1.5656	0	0	-0.304727	-0.364212	0.353907	1.25615	1.26888	0	0
15.02	-2.44236	1.45904	0.714679	0.643046	-0.312763	0.971296	0.201998	0.0561887	-0.1212	0.345283	0.114884	0	0	0.0477999	-0.0711453	-0.208621	0.0891367	0.0765581	0	0	-0.115993	0.11748	0.143728	-0.347108	-0.387094	0.17033	1.30881	1.5708	0	0	-0.310988	-0.359038	0.336766	1.26258	1.28654	0	0
15.03	-2.42413	1.4603	0.696953	0.642846	-0.313247	0.971342	0.198651	0.0566275	-0.122147	0.344927	0.115709	0	0	0.0437008	-0.0714536	-0.208241	0.0870902	0.0766693	0	0	-0.116469	0.117691	0.144034	-0.350522	-0.385534	0.164811	1.31333	1.5708	0	0	-0.316932	-0.35387	0.320627	1.26839	1.30293	0	0
15.04	-2.40621	1.46156	0.679187	0.642624	-0.31369	0.971392	0.195578	0.0571164	-0.122608	0.344885	0.116426	0	0	0.0394953	-0.0716952	-0.207974	0.0847545	0.0767232	0	0	-0.117254	0.117751	0.144259	-0.35335	-0.384188	0.1588	1.31885	1.5708	0	0	-0.323862	-0.346916	0.299183	1.27411	1.34662	0	0
15.05	-2.38921	1.46278	0.662049	0.642374	-0.314092	0.971415	0.192873	0.0575714	-0.122756	0.345193	0.117204	0	0	0.0354301	-0.0718444	-0.208232	0.0824416	0.076815	0	0	-0.117953	0.117719	0.145856	-0.357186	-0.382501	0.151435	1.32565	1.5708	0	0	-0.329036	-0.342551	0.286305	1.28307	1.33394	0	0
15.06	-2.37286	1.46419	0.645663	0.642165	-0.314484	0.971429	0.190135	0.0576973	-0.122929	0.345492	0.118024	0	0	0.0313649	-0.0716759	-0.208422	0.0801318	0.0768244	0	0	-0.118904	0.117416	0.146855	-0.360551	-0.381232	0.145185	1.33288	1.5708	0	0	-0.334897	-0.337307	0.270067	1.29254	1.34483	0	0
15.07	-2.35211	1.46603	0.624973	0.641988	-0.314883	0.971494	0.186588	0.0576738	-0.123211	0.345626	0.11885	0	0	0.0266019	-0.0713186	-0.208709	0.0776958	0.0766731	0	0	-0.12073	0.116932	0.147205	-0.363165	-0.380172	0.139577	1.34083	1.5708	0	0	-0.341473	-0.330974	0.249676	1.3024	1.38034	0	0
15.08	-2.31872	1.46643	0.591185	0.641502	-0.315276	0.971667	0.188831	0.0608358	-0.149494	0.358593	0.122217	0	0	0.0216149	-0.0735419	-0.210111	0.0757206	0.0771163	0	0	-0.12252	0.118018	0.149613	-0.36609	-0.378632	0.133637	1.34866	1.5708	0	0	-0.345371	-0.328691	0.240419	1.31271	1.36299	0	0
15.09	-2.31434	1.46911	0.586663	0.641546	-0.315638	0.971589	0.180186	0.0578935	-0.123032	0.345359	0.120843	0	0	0.0178386	-0.0708099	-0.209278	0.0729857	0.0765886	0	0	-0.123167	0.115813	0.149928	-0.368128	-0.378606	0.129068	1.35847	1.5708	0	0	-0.351645	-0.323032	0.221302	1.32334	1.39072	0	0
15.1	-2.30051	1.4704	0.572206	0.641276	-0.316021	0.971566	0.177625	0.0578706	-0.122485	0.34488	0.122117	0	0	0.0141259	-0.0704547	-0.209545	0.0708254	0.0766627	0	0	-0.12353	0.114939	0.151815	-0.370222	-0.378107	0.124349	1.36763	1.5708	0	0	-0.356273	-0.320176	0.208024	1.33422	1.39835	0	0
15.11	-2.28786	1.47161	0.558742	0.640988	-0.316391	0.971541	0.175526	0.0578517	-0.12194	0.345206	0.123235	0	0	0.0106599	-0.07008	-0.209885	0.0688487	0.0766763	0	0	-0.1237	0.113934	0.154157	-0.372092	-0.377721	0.119502	1.37716	1.5708	0	0	-0.360413	-0.318042	0.195322	1.34479	1.40372	0	0
15.12	-2.27821	1.47272	0.548166	0.640713	-0.316772	0.971518	0.173993	0.0577252	-0.121363	0.346212	0.124184	0	0	0.00755424	-0.0696079	-0.210149	0.0669301	0.0765957	0	0	-0.123419	0.112836	0.156791	-0.37376	-0.37737	0.114503	1.3869	1.5708	0	0	-0.36389	-0.316626	0.183876	1.35447	1.40694	0	0
15.13	-2.26941	1.47363	0.538388	0.640442	-0.317172	0.97151	0.172623	0.0576873	-0.120914	0.347255	0.124761	0	0	0.00472441	-0.0692522	-0.210514	0.0652608	0.0765858	0	0	-0.122989	0.111919	0.159599	-0.375277	-0.377102	0.109769	1.39574	1.5708	0	0	-0.366711	-0.315671	0.173235	1.36351	1.40932	0	0
15.14	-2.26043	1.47442	0.528409	0.640162	-0.317619	0.97151	0.171092	0.0577583	-0.120545	0.347907	0.125522	0	0	0.00192697	-0.0689825	-0.210923	0.0636481	0.0765707	0	0	-0.122516	0.11118	0.162458	-0.376413	-0.377086	0.105583	1.40359	1.5708	0	0	-0.369023	-0.315243	0.163501	1.37214	1.41224	0	0
15.15	-2.25183	1.475	0.518724	0.639865	-0.318092	0.97151	0.169456	0.0580304	-0.120032	0.348046	0.126293	0	0	-0.000744194	-0.0689207	-0.211414	0.062099	0.0765185	0	0	-0.121867	0.110628	0.165315	-0.376968	-0.377303	0.10197	1.4106	1.5708	0	0	-0.371032	-0.315195	0.154289	1.3806	1.41858	0	0
15.16	-2.24512	1.47543	0.510605	0.639559	-0.318561	0.971504	0.167879	0.0583932	-0.119139	0.347719	0.126888	0	0	-0.00328907	-0.0688779	-0.212075	0.0603713	0.0762861	0	0	-0.121094	0.110146	0.167853	-0.376525	-0.378116	0.0998626	1.41681	1.5708	0	0	-0.373339	-0.314597	0.143068	1.38907	1.44126	0	0
15.17	-2.24166	1.47577	0.505624	0.639285	-0.319027	0.971476	0.166753	0.0585843	-0.118232	0.347643	0.127507	0	0	-0.00550978	-0.0686569	-0.212509	0.0585676	0.0760941	0	0	-0.119951	0.109687	0.170622	-0.375884	-0.379489	0.0989898	1.42242	1.5708	0	0	-0.374755	-0.31542	0.135897	1.39886	1.43688	0	0
15.18	-2.23633	1.47592	0.499254	0.639048	-0.319534	0.971466	0.165384	0.0589426	-0.118105	0.347379	0.128117	0	0	-0.00742989	-0.0687312	-0.212968	0.0574395	0.0761921	0	0	-0.118875	0.109602	0.172753	-0.37492	-0.381366	0.0991064	1.42725	1.5708	0	0	-0.375681	-0.316367	0.128557	1.40825	1.43775	0	0
15.19	-2.22656	1.47597	0.488914	0.638828	-0.320069	0.971487	0.16342	0.0595275	-0.118296	0.346662	0.128603	0	0	-0.00945728	-0.0691353	-0.213354	0.0567443	0.0765667	0	0	-0.118299	0.109886	0.174199	-0.373593	-0.383664	0.0995707	1.43241	1.5708	0	0	-0.376417	-0.317429	0.121202	1.41723	1.43603	0	0
15.2	-2.21356	1.476	0.475595	0.638635	-0.320611	0.971532	0.160891	0.0602446	-0.118582	0.345327	0.128873	0	0	-0.0116886	-0.0697415	-0.213552	0.0561514	0.0770432	0	0	-0.118026	0.110374	0.175001	-0.371976	-0.386273	0.100982	1.43711	1.5708	0	0	-0.377005	-0.31859	0.11461	1.42466	1.43277	0	0
15.21	-2.19856	1.47607	0.460493	0.638472	-0.321139	0.971592	0.157978	0.0609937	-0.118775	0.343502	0.128924	0	0	-0.0139668	-0.0703651	-0.213634	0.0557099	0.0775362	0	0	-0.118043	0.110902	0.175427	-0.37025	-0.388964	0.103786	1.4403	1.5708	0	0	-0.377214	-0.319944	0.109796	1.43021	1.42851	0	0
15.22	-2.18229	1.4761	0.444466	0.638333	-0.321643	0.97166	0.154975	0.0617925	-0.119139	0.34167	0.128926	0	0	-0.0160819	-0.0710957	-0.213679	0.0556053	0.0780926	0	0	-0.118294	0.111493	0.175503	-0.36869	-0.391049	0.106418	1.44204	1.5708	0	0	-0.376845	-0.32148	0.107216	1.43402	1.42488	0	0
15.23	-2.1635	1.47604	0.426381	0.638206	-0.322153	0.971748	0.151625	0.0627663	-0.11976	0.33959	0.128865	0	0	-0.0182168	-0.0721114	-0.21331	0.0557658	0.0787206	0	0	-0.118787	0.112215	0.17508	-0.367211	-0.392457	0.108263	1.44297	1.57013	0	0	-0.376032	-0.322838	0.105582	1.43704	1.42169	0	0
15.24	-2.14399	1.47596	0.407991	0.638126	-0.3227	0.971826	0.148069	0.0636439	-0.120965	0.337354	0.12885	0	0	-0.0203202	-0.073108	-0.212776	0.0560843	0.0796515	0	0	-0.119245	0.113011	0.174092	-0.365987	-0.393369	0.109382	1.44347	1.56842	0	0	-0.374905	-0.323843	0.103898	1.44056	1.42041	0	0
15.25	-2.10792	1.47482	0.373192	0.637851	-0.32325	0.972023	0.14836	0.0670583	-0.143702	0.346169	0.131482	0	0	-0.0235703	-0.076186	-0.213071	0.0566917	0.0813169	0	0	-0.120985	0.115143	0.173146	-0.364847	-0.393737	0.109757	1.44439	1.56598	0	0	-0.373547	-0.324702	0.101729	1.44517	1.42175	0	0
15.26	-2.09181	1.47613	0.358992	0.638052	-0.323766	0.972036	0.139581	0.0652058	-0.124877	0.332981	0.129034	0	0	-0.0256448	-0.0751868	-0.211785	0.0572085	0.0820689	0	0	-0.121874	0.114653	0.170719	-0.36414	-0.394696	0.109534	1.44783	1.55986	0	0	-0.372666	-0.324312	0.0983736	1.45195	1.43216	0	0
15.27	-2.07605	1.47602	0.344498	0.638004	-0.324243	0.972059	0.136869	0.0658057	-0.126289	0.331636	0.129336	0	0	-0.0270315	-0.0760269	-0.211744	0.0581381	0.0831236	0	0	-0.122223	0.115245	0.169262	-0.36397	-0.394726	0.107963	1.45202	1.55846	0	0	-0.371712	-0.324087	0.0966855	1.46069	1.43674	0	0
15.28	-2.05733	1.47584	0.327367	0.638012	-0.324728	0.972109	0.133799	0.0664675	-0.127963	0.330191	0.129648	0	0	-0.0286077	-0.0769874	-0.211429	0.0591051	0.0843122	0	0	-0.122857	0.116043	0.167299	-0.363934	-0.39446	0.105982	1.45842	1.55778	0	0	-0.371295	-0.32325	0.0953007	1.47174	1.44422	0	0
15.29	-2.04127	1.47549	0.312838	0.638049	-0.325212	0.972157	0.131133	0.0671275	-0.129701	0.328936	0.129948	0	0	-0.0299476	-0.0779874	-0.210861	0.059975	0.085403	0	0	-0.123155	0.117042	0.165054	-0.363847	-0.394006	0.103834	1.46681	1.55713	0	0	-0.371424	-0.321603	0.0933282	1.48392	1.45424	0	0
15.3	-2.0279	1.47513	0.300954	0.638087	-0.325683	0.972193	0.128797	0.0677361	-0.131343	0.327764	0.130226	0	0	-0.0309982	-0.0788978	-0.210115	0.0608971	0.0864824	0	0	-0.123279	0.118007	0.162402	-0.363259	-0.393358	0.10098	1.47791	1.55548	0	0	-0.372203	-0.318905	0.089586	1.49485	1.46833	0	0
15.31	-2.01835	1.47488	0.292922	0.638122	-0.32614	0.972204	0.126865	0.0681782	-0.132558	0.326614	0.130378	0	0	-0.0316693	-0.0795839	-0.209062	0.0618493	0.0874085	0	0	-0.123086	0.118721	0.159508	-0.362169	-0.392315	0.0976889	1.48983	1.55529	0	0	-0.373703	-0.31545	0.0841077	1.5029	1.48388	0	0
15.32	-2.01194	1.47459	0.287985	0.63815	-0.326603	0.972197	0.125451	0.0685367	-0.133712	0.325937	0.130584	0	0	-0.0319269	-0.0802064	-0.208196	0.0630155	0.0881828	0	0	-0.122446	0.119249	0.156557	-0.360601	-0.391052	0.0941021	1.50048	1.556	0	0	-0.375853	-0.311875	0.0772335	1.50851	1.49662	0	0
15.33	-2.00823	1.47426	0.285371	0.638173	-0.32709	0.972186	0.124415	0.0688517	-0.134557	0.325693	0.131076	0	0	-0.0321357	-0.0807256	-0.207442	0.0638882	0.0890216	0	0	-0.121453	0.119642	0.153868	-0.358696	-0.389823	0.0902676	1.50835	1.55836	0	0	-0.378375	-0.308287	0.0689689	1.51316	1.50369	0	0
